<svg width="646" height="192" viewBox="0 0 646 192" fill="none" xmlns="http://www.w3.org/2000/svg">
  <!-- Background with rounded corners -->
  <rect width="646" height="192" rx="20" fill="black"/>

  <!-- Apple Logo -->
  <g transform="translate(60, 48)">
    <path d="M63.716 32.088c-3.492 4.128-9.18 7.332-14.676 6.912-0.696-5.604 2.04-11.508 5.196-15.12 3.492-4.128 9.588-7.128 14.544-7.332 0.624 5.808-1.668 11.412-5.064 15.54z" fill="white"/>
    <path d="M78.3 90.528c-0.024-12.624 10.308-18.708 10.788-19.044-5.868-8.58-15.012-9.756-18.264-9.888-7.764-0.78-15.168 4.572-19.116 4.572-3.948 0-10.056-4.452-16.536-4.332-8.508 0.12-16.356 4.956-20.736 12.588-8.844 15.372-2.268 38.148 6.36 50.628 4.212 6.12 9.228 12.996 15.816 12.744 6.348-0.252 8.748-4.104 16.416-4.104 7.668 0 9.828 4.104 16.5 3.972 6.804-0.132 11.1-6.192 15.264-12.336 4.812-7.104 6.792-13.98 6.912-14.328-0.144-0.072-13.248-5.088-13.284-20.172z" fill="white"/>
  </g>

  <!-- Text -->
  <text x="200" y="80" font-family="Arial, Helvetica, sans-serif" font-size="32" font-weight="400" fill="white">Disponible sur</text>
  <text x="200" y="135" font-family="Arial, Helvetica, sans-serif" font-size="56" font-weight="600" fill="white">App Store</text>
</svg>
